Weltraum-Regular.ufo
<glyph name="exclam" format="2">
	<advance width="260"/>
	<unicode hex="0021"/>
	<note>
		exclam
	</note>
	<outline>
		<contour>
			<point x="78" y="719" type="curve" smooth="yes"/>
			<point x="182" y="719" type="line" smooth="yes"/>
			<point x="187" y="719"/>
			<point x="190" y="716"/>
			<point x="190" y="711" type="curve" smooth="yes"/>
			<point x="190" y="248" type="line" smooth="yes"/>
			<point x="190" y="243"/>
			<point x="187" y="240"/>
			<point x="182" y="240" type="curve" smooth="yes"/>
			<point x="78" y="240" type="line" smooth="yes"/>
			<point x="73" y="240"/>
			<point x="70" y="243"/>
			<point x="70" y="248" type="curve" smooth="yes"/>
			<point x="70" y="711" type="line" smooth="yes"/>
			<point x="70" y="716"/>
			<point x="73" y="719"/>
		</contour>
		<contour>
			<point x="70" y="8" type="curve" smooth="yes"/>
			<point x="70" y="112" type="line" smooth="yes"/>
			<point x="70" y="117"/>
			<point x="73" y="120"/>
			<point x="78" y="120" type="curve" smooth="yes"/>
			<point x="182" y="120" type="line" smooth="yes"/>
			<point x="187" y="120"/>
			<point x="190" y="117"/>
			<point x="190" y="112" type="curve" smooth="yes"/>
			<point x="190" y="8" type="line" smooth="yes"/>
			<point x="190" y="3"/>
			<point x="187" y="0"/>
			<point x="182" y="0" type="curve" smooth="yes"/>
			<point x="78" y="0" type="line" smooth="yes"/>
			<point x="73" y="0"/>
			<point x="70" y="3"/>
		</contour>
	</outline>
</glyph>
<glyph name="comma" format="2">
	<advance width="277"/>
	<unicode hex="002C"/>
	<note>
		comma
	</note>
	<outline>
		<contour>
			<point x="106.3" y="124.83" type="curve" smooth="yes"/>
			<point x="199.59" y="113.38" type="line" smooth="yes"/>
			<point x="204.36" y="112.79"/>
			<point x="207.14" y="109.23"/>
			<point x="206.56" y="104.46" type="curve" smooth="yes"/>
			<point x="179.26" y="-117.87" type="line" smooth="yes"/>
			<point x="178.68" y="-122.63"/>
			<point x="175.11" y="-125.42"/>
			<point x="170.35" y="-124.83" type="curve" smooth="yes"/>
			<point x="77.05" y="-113.38" type="line" smooth="yes"/>
			<point x="72.28" y="-112.79"/>
			<point x="69.5" y="-109.23"/>
			<point x="70.08" y="-104.46" type="curve" smooth="yes"/>
			<point x="97.38" y="117.87" type="line" smooth="yes"/>
			<point x="97.97" y="122.63"/>
			<point x="101.53" y="125.42"/>
		</contour>
	</outline>
</glyph>
<glyph name="hyphen" format="2">
	<advance width="360"/>
	<unicode hex="002D"/>
	<note>
		hyphen
	</note>
	<outline>
		<contour>
			<point x="60" y="289" type="curve" smooth="yes"/>
			<point x="60" y="391" type="line" smooth="yes"/>
			<point x="60" y="396"/>
			<point x="63" y="399"/>
			<point x="68" y="399" type="curve" smooth="yes"/>
			<point x="292" y="399" type="line" smooth="yes"/>
			<point x="297" y="399"/>
			<point x="300" y="396"/>
			<point x="300" y="391" type="curve" smooth="yes"/>
			<point x="300" y="289" type="line" smooth="yes"/>
			<point x="300" y="284"/>
			<point x="297" y="281"/>
			<point x="292" y="281" type="curve" smooth="yes"/>
			<point x="68" y="281" type="line" smooth="yes"/>
			<point x="63" y="281"/>
			<point x="60" y="284"/>
		</contour>
	</outline>
</glyph>
<glyph name="period" format="2">
	<advance width="260"/>
	<unicode hex="002E"/>
	<note>
		period
	</note>
	<outline>
		<contour>
			<point x="78" y="120" type="curve" smooth="yes"/>
			<point x="182" y="120" type="line" smooth="yes"/>
			<point x="187" y="120"/>
			<point x="190" y="117"/>
			<point x="190" y="112" type="curve" smooth="yes"/>
			<point x="190" y="8" type="line" smooth="yes"/>
			<point x="190" y="3"/>
			<point x="187" y="0"/>
			<point x="182" y="0" type="curve" smooth="yes"/>
			<point x="78" y="0" type="line" smooth="yes"/>
			<point x="73" y="0"/>
			<point x="70" y="3"/>
			<point x="70" y="8" type="curve" smooth="yes"/>
			<point x="70" y="112" type="line" smooth="yes"/>
			<point x="70" y="117"/>
			<point x="73" y="120"/>
		</contour>
	</outline>
</glyph>
<glyph name="slash" format="2">
	<advance width="353"/>
	<unicode hex="002F"/>
	<note>
		slash
	</note>
	<outline>
		<contour>
			<point x="183.07" y="782.49" type="curve" smooth="yes"/>
			<point x="276.37" y="771.03" type="line" smooth="yes"/>
			<point x="281.14" y="770.44"/>
			<point x="283.92" y="766.88"/>
			<point x="283.34" y="762.11" type="curve" smooth="yes"/>
			<point x="179.26" y="-85.52" type="line" smooth="yes"/>
			<point x="178.68" y="-90.29"/>
			<point x="175.11" y="-93.07"/>
			<point x="170.35" y="-92.49" type="curve" smooth="yes"/>
			<point x="77.05" y="-81.03" type="line" smooth="yes"/>
			<point x="72.28" y="-80.44"/>
			<point x="69.5" y="-76.88"/>
			<point x="70.08" y="-72.11" type="curve" smooth="yes"/>
			<point x="174.16" y="775.52" type="line" smooth="yes"/>
			<point x="174.74" y="780.29"/>
			<point x="178.31" y="783.07"/>
		</contour>
	</outline>
</glyph>
<glyph name="zero" format="2">
	<advance width="590"/>
	<unicode hex="0030"/>
	<note>
		zero
	</note>
	<outline>
		<contour>
			<point x="280" y="105" type="curve" smooth="yes"/>
			<point x="280" y="8" type="line" smooth="yes"/>
			<point x="280" y="3.2"/>
			<point x="276.8" y="0"/>
			<point x="272" y="0" type="curve" smooth="yes"/>
			<point x="130.45" y="0" type="line" smooth="yes"/>
			<point x="94.18" y="0"/>
			<point x="70" y="24.18"/>
			<point x="70" y="60.45" type="curve" smooth="yes"/>
			<point x="70" y="659.55" type="line" smooth="yes"/>
			<point x="70" y="695.82"/>
			<point x="94.18" y="720"/>
			<point x="130.45" y="720" type="curve" smooth="yes"/>
			<point x="459.55" y="720" type="line" smooth="yes"/>
			<point x="495.82" y="720"/>
			<point x="520" y="695.82"/>
			<point x="520" y="659.55" type="curve" smooth="yes"/>
			<point x="520" y="60.45" type="line" smooth="yes"/>
			<point x="520" y="24.18"/>
			<point x="495.82" y="0"/>
			<point x="459.55" y="0" type="curve" smooth="yes"/>
			<point x="413" y="0" type="line" smooth="yes"/>
			<point x="408" y="0"/>
			<point x="405" y="3"/>
			<point x="405" y="8" type="curve" smooth="yes"/>
			<point x="405" y="607" type="line"/>
			<point x="185" y="607" type="line"/>
			<point x="185" y="113" type="line"/>
			<point x="272" y="113" type="line" smooth="yes"/>
			<point x="277" y="113"/>
			<point x="280" y="110"/>
		</contour>
	</outline>
</glyph>
<glyph name="one" format="2">
	<advance width="370"/>
	<unicode hex="0031"/>
	<note>
		one
	</note>
	<outline>
		<contour>
			<point x="68" y="720" type="curve" smooth="yes"/>
			<point x="239.55" y="720" type="line" smooth="yes"/>
			<point x="275.82" y="720"/>
			<point x="300" y="695.82"/>
			<point x="300" y="659.55" type="curve" smooth="yes"/>
			<point x="300" y="8" type="line" smooth="yes"/>
			<point x="300" y="3.2"/>
			<point x="296.8" y="0"/>
			<point x="292" y="0" type="curve" smooth="yes"/>
			<point x="188" y="0" type="line" smooth="yes"/>
			<point x="183.2" y="0"/>
			<point x="180" y="3.2"/>
			<point x="180" y="8" type="curve" smooth="yes"/>
			<point x="180" y="602" type="line"/>
			<point x="68" y="602" type="line" smooth="yes"/>
			<point x="63.2" y="602"/>
			<point x="60" y="605.2"/>
			<point x="60" y="610" type="curve" smooth="yes"/>
			<point x="60" y="712" type="line" smooth="yes"/>
			<point x="60" y="716.8"/>
			<point x="63.2" y="720"/>
		</contour>
	</outline>
</glyph>
<glyph name="three" format="2">
	<advance width="550"/>
	<unicode hex="0033"/>
	<outline>
		<contour>
			<point x="480" y="60.451" type="curve" smooth="yes"/>
			<point x="480" y="110" type="line" smooth="yes"/>
			<point x="480" y="114.8"/>
			<point x="476.8" y="118"/>
			<point x="472" y="118" type="curve" smooth="yes"/>
			<point x="68" y="118" type="line" smooth="yes"/>
			<point x="63.2" y="118"/>
			<point x="60" y="114.8"/>
			<point x="60" y="110" type="curve" smooth="yes"/>
			<point x="60" y="8" type="line" smooth="yes"/>
			<point x="60" y="3.2"/>
			<point x="63.2" y="0"/>
			<point x="68" y="0" type="curve" smooth="yes"/>
			<point x="419.549" y="0" type="line" smooth="yes"/>
			<point x="455.819" y="0"/>
			<point x="480" y="24.181"/>
		</contour>
		<contour>
			<point x="480" y="289" type="curve" smooth="yes"/>
			<point x="480" y="659.549" type="line" smooth="yes"/>
			<point x="480" y="695.819"/>
			<point x="455.819" y="720"/>
			<point x="419.549" y="720" type="curve" smooth="yes"/>
			<point x="68" y="720" type="line" smooth="yes"/>
			<point x="63.2" y="720"/>
			<point x="60" y="716.8"/>
			<point x="60" y="712" type="curve" smooth="yes"/>
			<point x="60" y="610" type="line" smooth="yes"/>
			<point x="60" y="605.2"/>
			<point x="63.2" y="602"/>
			<point x="68.001" y="602" type="curve" smooth="yes"/>
			<point x="360" y="602" type="line"/>
			<point x="360" y="399" type="line"/>
			<point x="188" y="399" type="line" smooth="yes"/>
			<point x="183.2" y="399"/>
			<point x="180" y="395.8"/>
			<point x="180" y="391" type="curve" smooth="yes"/>
			<point x="180" y="289" type="line" smooth="yes"/>
			<point x="180" y="284.2"/>
			<point x="183.2" y="281"/>
			<point x="188.001" y="281" type="curve" smooth="yes"/>
			<point x="471.999" y="281" type="line" smooth="yes"/>
			<point x="476.8" y="281"/>
			<point x="480" y="284.2"/>
		</contour>
	</outline>
</glyph>
<glyph name="four" format="2">
	<advance width="550"/>
	<unicode hex="0034"/>
	<outline>
		<contour>
			<point x="129.988" y="282.018" type="line" smooth="yes"/>
			<point x="93.995" y="282.018"/>
			<point x="70" y="306.011"/>
			<point x="70" y="342" type="curve" smooth="yes"/>
			<point x="70" y="660.018" type="line" smooth="yes"/>
			<point x="70" y="696.007"/>
			<point x="93.995" y="720"/>
			<point x="129.988" y="720" type="curve" smooth="yes"/>
			<point x="190" y="720" type="line"/>
			<point x="190" y="398" type="line"/>
			<point x="480" y="398" type="line"/>
			<point x="480" y="0" type="line"/>
			<point x="360" y="0" type="line"/>
			<point x="360" y="282" type="line"/>
		</contour>
	</outline>
</glyph>
<glyph name="five" format="2">
	<advance width="550"/>
	<unicode hex="0035"/>
	<note>
		five
	</note>
	<outline>
		<contour>
			<point x="462" y="602" type="curve" smooth="yes"/>
			<point x="78" y="602" type="line" smooth="yes"/>
			<point x="73.2" y="602"/>
			<point x="70" y="605.2"/>
			<point x="70" y="610" type="curve" smooth="yes"/>
			<point x="70" y="659.55" type="line" smooth="yes"/>
			<point x="70" y="695.82"/>
			<point x="94.18" y="720"/>
			<point x="130.45" y="720" type="curve" smooth="yes"/>
			<point x="462" y="720" type="line" smooth="yes"/>
			<point x="466.8" y="720"/>
			<point x="470" y="716.8"/>
			<point x="470" y="712" type="curve" smooth="yes"/>
			<point x="470" y="610" type="line" smooth="yes"/>
			<point x="470" y="605.2"/>
			<point x="466.8" y="602"/>
		</contour>
		<contour>
			<point x="60" y="8" type="curve" smooth="yes"/>
			<point x="60" y="110" type="line" smooth="yes"/>
			<point x="60" y="114.8"/>
			<point x="63.2" y="118"/>
			<point x="68" y="118" type="curve" smooth="yes"/>
			<point x="360" y="118" type="line"/>
			<point x="360" y="301" type="line"/>
			<point x="132" y="301" type="line" smooth="yes"/>
			<point x="96" y="301"/>
			<point x="72" y="325"/>
			<point x="72" y="361" type="curve" smooth="yes"/>
			<point x="72" y="412" type="line" smooth="yes"/>
			<point x="72" y="416.8"/>
			<point x="75.2" y="420"/>
			<point x="80" y="420" type="curve" smooth="yes"/>
			<point x="420" y="420" type="line" smooth="yes"/>
			<point x="456" y="420"/>
			<point x="480" y="396"/>
			<point x="480" y="360" type="curve" smooth="yes"/>
			<point x="480" y="60" type="line" smooth="yes"/>
			<point x="480" y="24"/>
			<point x="456" y="0"/>
			<point x="420" y="0" type="curve" smooth="yes"/>
			<point x="68" y="0" type="line" smooth="yes"/>
			<point x="63.2" y="0"/>
			<point x="60" y="3.2"/>
		</contour>
	</outline>
</glyph>
<glyph name="six" format="2">
	<advance width="550"/>
	<unicode hex="0036"/>
	<note>
		six
	</note>
	<outline>
		<contour>
			<point x="60" y="308.99" type="curve" smooth="yes"/>
			<point x="60" y="419" type="line"/>
			<point x="164.32" y="712.46" type="line" smooth="yes"/>
			<point x="165.93" y="716.99"/>
			<point x="170.2" y="719.99"/>
			<point x="175" y="719.99" type="curve" smooth="yes"/>
			<point x="297" y="719.99" type="line"/>
			<point x="190" y="418.99" type="line"/>
			<point x="420" y="418.99" type="line" smooth="yes"/>
			<point x="456" y="418.99"/>
			<point x="480" y="394.99"/>
			<point x="480" y="358.99" type="curve" smooth="yes"/>
			<point x="480" y="59.99" type="line" smooth="yes"/>
			<point x="480" y="23.99"/>
			<point x="456" y="-0.01"/>
			<point x="420" y="-0.01" type="curve" smooth="yes"/>
			<point x="120" y="-0.01" type="line" smooth="yes"/>
			<point x="84" y="-0.01"/>
			<point x="60" y="23.99"/>
			<point x="60" y="59.99" type="curve" smooth="yes"/>
			<point x="60" y="109.99" type="line" smooth="yes"/>
			<point x="60" y="114.79"/>
			<point x="63.2" y="117.99"/>
			<point x="68" y="117.99" type="curve" smooth="yes"/>
			<point x="360" y="117.99" type="line"/>
			<point x="360" y="300.99" type="line"/>
			<point x="68" y="300.99" type="line" smooth="yes"/>
			<point x="63.2" y="300.99"/>
			<point x="60" y="304.19"/>
		</contour>
	</outline>
</glyph>
<glyph name="seven" format="2">
	<advance width="560"/>
	<unicode hex="0037"/>
	<note>
		seven
	</note>
	<outline>
		<contour>
			<point x="349.23" y="472.5" type="curve" smooth="yes"/>
			<point x="175" y="0" type="line"/>
			<point x="302" y="0" type="line" smooth="yes"/>
			<point x="306.8" y="0"/>
			<point x="311.07" y="3.02"/>
			<point x="312.67" y="7.54" type="curve" smooth="yes"/>
			<point x="480" y="480" type="line"/>
			<point x="360" y="480" type="line" smooth="yes"/>
			<point x="355.2" y="480"/>
			<point x="350.89" y="477"/>
		</contour>
		<contour>
			<point x="60" y="712" type="curve" smooth="yes"/>
			<point x="60" y="608" type="line" smooth="yes"/>
			<point x="60" y="603.2"/>
			<point x="63.2" y="600"/>
			<point x="68" y="600" type="curve" smooth="yes"/>
			<point x="492" y="600" type="line" smooth="yes"/>
			<point x="496.8" y="600"/>
			<point x="500" y="603.2"/>
			<point x="500" y="608" type="curve" smooth="yes"/>
			<point x="500" y="659.55" type="line" smooth="yes"/>
			<point x="500" y="695.82"/>
			<point x="475.82" y="720"/>
			<point x="439.55" y="720" type="curve" smooth="yes"/>
			<point x="68" y="720" type="line" smooth="yes"/>
			<point x="63.2" y="720"/>
			<point x="60" y="716.8"/>
		</contour>
	</outline>
</glyph>
<glyph name="eight" format="2">
	<advance width="590"/>
	<unicode hex="0038"/>
	<note>
		eight
	</note>
	<outline>
		<contour>
			<point x="413" y="419" type="curve" smooth="yes"/>
			<point x="460" y="419" type="line" smooth="yes"/>
			<point x="496" y="419"/>
			<point x="520" y="443"/>
			<point x="520" y="479" type="curve" smooth="yes"/>
			<point x="520" y="660" type="line" smooth="yes"/>
			<point x="520" y="696"/>
			<point x="496" y="720"/>
			<point x="460" y="720" type="curve" smooth="yes"/>
			<point x="130" y="720" type="line" smooth="yes"/>
			<point x="94" y="720"/>
			<point x="70" y="696"/>
			<point x="70" y="660" type="curve" smooth="yes"/>
			<point x="70" y="479" type="line" smooth="yes"/>
			<point x="70" y="443"/>
			<point x="94" y="419"/>
			<point x="130" y="419" type="curve" smooth="yes"/>
			<point x="177" y="419" type="line" smooth="yes"/>
			<point x="182" y="419"/>
			<point x="185" y="422"/>
			<point x="185" y="427" type="curve" smooth="yes"/>
			<point x="185" y="607" type="line"/>
			<point x="405" y="607" type="line"/>
			<point x="405" y="427" type="line" smooth="yes"/>
			<point x="405" y="422"/>
			<point x="408" y="419"/>
		</contour>
		<contour>
			<point x="70" y="239" type="curve" smooth="yes"/>
			<point x="70" y="60" type="line" smooth="yes"/>
			<point x="70" y="24"/>
			<point x="94" y="0"/>
			<point x="130" y="0" type="curve" smooth="yes"/>
			<point x="460" y="0" type="line" smooth="yes"/>
			<point x="496" y="0"/>
			<point x="520" y="24"/>
			<point x="520" y="60" type="curve" smooth="yes"/>
			<point x="520" y="239" type="line" smooth="yes"/>
			<point x="520" y="275"/>
			<point x="496" y="299"/>
			<point x="460" y="299" type="curve" smooth="yes"/>
			<point x="413" y="299" type="line" smooth="yes"/>
			<point x="408" y="299"/>
			<point x="405" y="296"/>
			<point x="405" y="291" type="curve" smooth="yes"/>
			<point x="405" y="113" type="line"/>
			<point x="185" y="113" type="line"/>
			<point x="185" y="291" type="line" smooth="yes"/>
			<point x="185" y="296"/>
			<point x="182" y="299"/>
			<point x="177" y="299" type="curve" smooth="yes"/>
			<point x="130" y="299" type="line" smooth="yes"/>
			<point x="94" y="299"/>
			<point x="70" y="275"/>
		</contour>
	</outline>
</glyph>
<glyph name="nine" format="2">
	<advance width="570"/>
	<unicode hex="0039"/>
	<note>
		nine
	</note>
	<outline>
		<contour>
			<point x="380" y="8" type="curve" smooth="yes"/>
			<point x="380" y="300" type="line"/>
			<point x="120" y="300" type="line" smooth="yes"/>
			<point x="84" y="300"/>
			<point x="60" y="324"/>
			<point x="60" y="360" type="curve" smooth="yes"/>
			<point x="60" y="660" type="line" smooth="yes"/>
			<point x="60" y="696"/>
			<point x="84" y="720"/>
			<point x="120" y="720" type="curve" smooth="yes"/>
			<point x="440" y="720" type="line" smooth="yes"/>
			<point x="476" y="720"/>
			<point x="500" y="696"/>
			<point x="500" y="660" type="curve" smooth="yes"/>
			<point x="500" y="608" type="line" smooth="yes"/>
			<point x="500" y="603.2"/>
			<point x="496.8" y="600"/>
			<point x="492" y="600" type="curve" smooth="yes"/>
			<point x="180" y="600" type="line"/>
			<point x="180" y="420" type="line"/>
			<point x="492" y="420" type="line" smooth="yes"/>
			<point x="496.8" y="420"/>
			<point x="500" y="416.8"/>
			<point x="500" y="412" type="curve" smooth="yes"/>
			<point x="500" y="8" type="line" smooth="yes"/>
			<point x="500" y="3.2"/>
			<point x="496.8" y="0"/>
			<point x="492" y="0" type="curve" smooth="yes"/>
			<point x="388" y="0" type="line" smooth="yes"/>
			<point x="383.2" y="0"/>
			<point x="380" y="3.2"/>
		</contour>
	</outline>
</glyph>
<glyph name="colon" format="2">
	<advance width="260"/>
	<unicode hex="003A"/>
	<note>
		colon
	</note>
	<outline>
		<contour>
			<point x="78" y="419" type="curve" smooth="yes"/>
			<point x="182" y="419" type="line" smooth="yes"/>
			<point x="187" y="419"/>
			<point x="190" y="416"/>
			<point x="190" y="411" type="curve" smooth="yes"/>
			<point x="190" y="309" type="line" smooth="yes"/>
			<point x="190" y="304"/>
			<point x="187" y="301"/>
			<point x="182" y="301" type="curve" smooth="yes"/>
			<point x="78" y="301" type="line" smooth="yes"/>
			<point x="73" y="301"/>
			<point x="70" y="304"/>
			<point x="70" y="309" type="curve" smooth="yes"/>
			<point x="70" y="411" type="line" smooth="yes"/>
			<point x="70" y="416"/>
			<point x="73" y="419"/>
		</contour>
		<contour>
			<point x="70" y="8" type="curve" smooth="yes"/>
			<point x="70" y="110" type="line" smooth="yes"/>
			<point x="70" y="115"/>
			<point x="73" y="118"/>
			<point x="78" y="118" type="curve" smooth="yes"/>
			<point x="182" y="118" type="line" smooth="yes"/>
			<point x="187" y="118"/>
			<point x="190" y="115"/>
			<point x="190" y="110" type="curve" smooth="yes"/>
			<point x="190" y="8" type="line" smooth="yes"/>
			<point x="190" y="3"/>
			<point x="187" y="0"/>
			<point x="182" y="0" type="curve" smooth="yes"/>
			<point x="78" y="0" type="line" smooth="yes"/>
			<point x="73" y="0"/>
			<point x="70" y="3"/>
		</contour>
	</outline>
</glyph>
<glyph name="A" format="2">
	<advance width="597.65"/>
	<unicode hex="0041"/>
	<outline>
		<contour>
			<point x="145.097" y="660.182" type="curve" smooth="yes"/>
			<point x="50.119" y="8.907" type="line" smooth="yes"/>
			<point x="49.34" y="3.563"/>
			<point x="52.42" y="0"/>
			<point x="57.82" y="0" type="curve" smooth="yes"/>
			<point x="167.82" y="0" type="line" smooth="yes"/>
			<point x="172.62" y="0"/>
			<point x="176.207" y="3.177"/>
			<point x="176.786" y="7.942" type="curve" smooth="yes"/>
			<point x="248.82" y="600" type="line"/>
			<point x="348.82" y="600" type="line"/>
			<point x="420.854" y="7.942" type="line" smooth="yes"/>
			<point x="421.433" y="3.177"/>
			<point x="425.02" y="0"/>
			<point x="429.82" y="0" type="curve" smooth="yes"/>
			<point x="539.82" y="0" type="line" smooth="yes"/>
			<point x="545.22" y="0"/>
			<point x="548.306" y="3.563"/>
			<point x="547.534" y="8.908" type="curve" smooth="yes"/>
			<point x="453.462" y="660.17" type="line" smooth="yes"/>
			<point x="448.277" y="696.068"/>
			<point x="420.64" y="720"/>
			<point x="384.369" y="720" type="curve" smooth="yes"/>
			<point x="214.272" y="720" type="line" smooth="yes"/>
			<point x="178.001" y="720"/>
			<point x="150.331" y="696.073"/>
		</contour>
	</outline>
</glyph>
<glyph name="B" format="2">
	<advance width="610"/>
	<unicode hex="0042"/>
	<note>
		B
	</note>
	<outline>
		<contour>
			<point x="60" y="610" type="curve" smooth="yes"/>
			<point x="60" y="712" type="line" smooth="yes"/>
			<point x="60" y="717"/>
			<point x="63" y="720"/>
			<point x="68" y="720" type="curve" smooth="yes"/>
			<point x="320" y="720" type="line" smooth="yes"/>
			<point x="356" y="720"/>
			<point x="380" y="696"/>
			<point x="380" y="660" type="curve" smooth="yes"/>
			<point x="380" y="439" type="line"/>
			<point x="480" y="439" type="line" smooth="yes"/>
			<point x="516" y="439"/>
			<point x="540" y="415"/>
			<point x="540" y="379" type="curve" smooth="yes"/>
			<point x="540" y="60" type="line" smooth="yes"/>
			<point x="540" y="24"/>
			<point x="516" y="0"/>
			<point x="480" y="0" type="curve" smooth="yes"/>
			<point x="68" y="0" type="line" smooth="yes"/>
			<point x="63" y="0"/>
			<point x="60" y="3"/>
			<point x="60" y="8" type="curve" smooth="yes"/>
			<point x="60" y="110" type="line" smooth="yes"/>
			<point x="60" y="115"/>
			<point x="63" y="118"/>
			<point x="68" y="118" type="curve" smooth="yes"/>
			<point x="420" y="118" type="line"/>
			<point x="420" y="321" type="line"/>
			<point x="268" y="321" type="line" smooth="yes"/>
			<point x="263" y="321"/>
			<point x="260" y="324"/>
			<point x="260" y="329" type="curve" smooth="yes"/>
			<point x="260" y="602" type="line"/>
			<point x="68" y="602" type="line" smooth="yes"/>
			<point x="63" y="602"/>
			<point x="60" y="605"/>
		</contour>
	</outline>
</glyph>
<glyph name="C" format="2">
	<advance width="570"/>
	<unicode hex="0043"/>
	<outline>
		<contour>
			<point x="70" y="59.988" type="curve" smooth="yes"/>
			<point x="70" y="660.012" type="line" smooth="yes"/>
			<point x="70" y="696.005"/>
			<point x="93.993" y="720"/>
			<point x="129.982" y="720" type="curve" smooth="yes"/>
			<point x="450" y="720" type="line" smooth="yes"/>
			<point x="486" y="720"/>
			<point x="510" y="696"/>
			<point x="510" y="660" type="curve" smooth="yes"/>
			<point x="510" y="610" type="line" smooth="yes"/>
			<point x="510" y="605.2"/>
			<point x="506.8" y="602"/>
			<point x="502" y="602" type="curve" smooth="yes"/>
			<point x="190" y="602" type="line"/>
			<point x="190" y="118" type="line"/>
			<point x="502" y="118" type="line" smooth="yes"/>
			<point x="506.8" y="118"/>
			<point x="510" y="114.8"/>
			<point x="510" y="110" type="curve" smooth="yes"/>
			<point x="510" y="60" type="line" smooth="yes"/>
			<point x="510" y="24"/>
			<point x="486" y="0"/>
			<point x="450" y="0" type="curve" smooth="yes"/>
			<point x="129.982" y="0" type="line" smooth="yes"/>
			<point x="93.993" y="0"/>
			<point x="70" y="23.995"/>
		</contour>
	</outline>
</glyph>
<glyph name="D" format="2">
	<advance width="611"/>
	<unicode hex="0044"/>
	<note>
		D
	</note>
	<outline>
		<contour>
			<point x="71" y="8" type="curve" smooth="yes"/>
			<point x="71" y="8" type="line"/>
			<point x="71" y="472" type="line" smooth="yes"/>
			<point x="71" y="477"/>
			<point x="74" y="480"/>
			<point x="79" y="480" type="curve" smooth="yes"/>
			<point x="178" y="480" type="line" smooth="yes"/>
			<point x="183" y="480"/>
			<point x="186" y="477"/>
			<point x="186" y="472" type="curve" smooth="yes"/>
			<point x="186" y="113" type="line"/>
			<point x="426" y="113" type="line"/>
			<point x="426" y="607" type="line"/>
			<point x="78" y="607" type="line" smooth="yes"/>
			<point x="73" y="607"/>
			<point x="70" y="610"/>
			<point x="70" y="615" type="curve" smooth="yes"/>
			<point x="70" y="712" type="line" smooth="yes"/>
			<point x="70" y="717"/>
			<point x="73" y="720"/>
			<point x="78" y="720" type="curve" smooth="yes"/>
			<point x="481" y="720" type="line" smooth="yes"/>
			<point x="517" y="720"/>
			<point x="541" y="696"/>
			<point x="541" y="660" type="curve" smooth="yes"/>
			<point x="541" y="60" type="line" smooth="yes"/>
			<point x="541" y="24"/>
			<point x="517" y="0"/>
			<point x="481" y="0" type="curve" smooth="yes"/>
			<point x="79" y="0" type="line" smooth="yes"/>
			<point x="74" y="0"/>
			<point x="71" y="3"/>
		</contour>
	</outline>
</glyph>
<glyph name="F" format="2">
	<advance width="570"/>
	<unicode hex="0046"/>
	<note>
		F
	</note>
	<outline>
		<contour>
			<point x="502" y="602" type="curve" smooth="yes"/>
			<point x="78" y="602" type="line" smooth="yes"/>
			<point x="73" y="602"/>
			<point x="70" y="605"/>
			<point x="70" y="610" type="curve" smooth="yes"/>
			<point x="70" y="660" type="line" smooth="yes"/>
			<point x="70" y="696"/>
			<point x="94" y="720"/>
			<point x="130" y="720" type="curve" smooth="yes"/>
			<point x="502" y="720" type="line" smooth="yes"/>
			<point x="506.8" y="720"/>
			<point x="510" y="716.8"/>
			<point x="510" y="712" type="curve" smooth="yes"/>
			<point x="510" y="610" type="line" smooth="yes"/>
			<point x="510" y="605.2"/>
			<point x="506.8" y="602"/>
		</contour>
		<contour>
			<point x="70" y="8" type="curve" smooth="yes"/>
			<point x="70" y="411" type="line" smooth="yes"/>
			<point x="70" y="415.8"/>
			<point x="73.2" y="419"/>
			<point x="78" y="419" type="curve" smooth="yes"/>
			<point x="382" y="419" type="line" smooth="yes"/>
			<point x="386.8" y="419"/>
			<point x="390" y="415.8"/>
			<point x="390" y="411" type="curve" smooth="yes"/>
			<point x="390" y="309" type="line" smooth="yes"/>
			<point x="390" y="304.2"/>
			<point x="386.8" y="301"/>
			<point x="382" y="301" type="curve" smooth="yes"/>
			<point x="190" y="301" type="line"/>
			<point x="190" y="8" type="line" smooth="yes"/>
			<point x="190" y="3.2"/>
			<point x="186.8" y="0"/>
			<point x="182" y="0" type="curve" smooth="yes"/>
			<point x="78" y="0" type="line" smooth="yes"/>
			<point x="73.2" y="0"/>
			<point x="70" y="3.2"/>
		</contour>
	</outline>
</glyph>
<glyph name="G" format="2">
	<advance width="610"/>
	<unicode hex="0047"/>
	<note>
		G
	</note>
	<outline>
		<contour>
			<point x="532" y="607" type="curve" smooth="yes"/>
			<point x="184" y="607" type="line"/>
			<point x="185" y="113" type="line"/>
			<point x="424" y="113" type="line"/>
			<point x="424" y="391" type="line" smooth="yes"/>
			<point x="424" y="396"/>
			<point x="427" y="399"/>
			<point x="432" y="399" type="curve" smooth="yes"/>
			<point x="479" y="399" type="line" smooth="yes"/>
			<point x="515" y="399"/>
			<point x="539" y="375"/>
			<point x="539" y="339" type="curve" smooth="yes"/>
			<point x="539" y="60" type="line" smooth="yes"/>
			<point x="539" y="24"/>
			<point x="515" y="0"/>
			<point x="479" y="0" type="curve" smooth="yes"/>
			<point x="130.44" y="0" type="line" smooth="yes"/>
			<point x="94.17" y="0"/>
			<point x="69.99" y="24.18"/>
			<point x="69.99" y="60.45" type="curve" smooth="yes"/>
			<point x="69.99" y="659.55" type="line" smooth="yes"/>
			<point x="69.99" y="695.82"/>
			<point x="94.17" y="720"/>
			<point x="130.44" y="720" type="curve" smooth="yes"/>
			<point x="480" y="720" type="line" smooth="yes"/>
			<point x="516" y="720"/>
			<point x="540" y="696"/>
			<point x="540" y="660" type="curve" smooth="yes"/>
			<point x="540" y="615" type="line" smooth="yes"/>
			<point x="540" y="610"/>
			<point x="537" y="607"/>
		</contour>
	</outline>
</glyph>
<glyph name="H" format="2">
	<advance width="610"/>
	<unicode hex="0048"/>
	<note>
		H
	</note>
	<outline>
		<contour>
			<point x="428" y="720" type="curve" smooth="yes"/>
			<point x="532" y="720" type="line" smooth="yes"/>
			<point x="536.8" y="720"/>
			<point x="540" y="716.8"/>
			<point x="540" y="712" type="curve" smooth="yes"/>
			<point x="540" y="8" type="line" smooth="yes"/>
			<point x="540" y="3.2"/>
			<point x="536.8" y="0"/>
			<point x="532" y="0" type="curve" smooth="yes"/>
			<point x="428" y="0" type="line" smooth="yes"/>
			<point x="423.2" y="0"/>
			<point x="420" y="3.2"/>
			<point x="420" y="8" type="curve" smooth="yes"/>
			<point x="420" y="301" type="line"/>
			<point x="68" y="301" type="line" smooth="yes"/>
			<point x="63.2" y="301"/>
			<point x="60" y="304.2"/>
			<point x="60" y="309" type="curve" smooth="yes"/>
			<point x="60" y="411" type="line" smooth="yes"/>
			<point x="60" y="415.8"/>
			<point x="63.2" y="419"/>
			<point x="68" y="419" type="curve" smooth="yes"/>
			<point x="420" y="419" type="line"/>
			<point x="420" y="712" type="line" smooth="yes"/>
			<point x="420" y="716.8"/>
			<point x="423.2" y="720"/>
		</contour>
	</outline>
</glyph>
<glyph name="I" format="2">
	<advance width="260"/>
	<unicode hex="0049"/>
	<note>
		I
	</note>
	<outline>
		<contour>
			<point x="78" y="720" type="curve" smooth="yes"/>
			<point x="182" y="720" type="line" smooth="yes"/>
			<point x="186.8" y="720"/>
			<point x="190" y="716.8"/>
			<point x="190" y="712" type="curve" smooth="yes"/>
			<point x="190" y="8" type="line" smooth="yes"/>
			<point x="190" y="3.2"/>
			<point x="186.8" y="0"/>
			<point x="182" y="0" type="curve" smooth="yes"/>
			<point x="78" y="0" type="line" smooth="yes"/>
			<point x="73.2" y="0"/>
			<point x="70" y="3.2"/>
			<point x="70" y="8" type="curve" smooth="yes"/>
			<point x="70" y="712" type="line" smooth="yes"/>
			<point x="70" y="716.8"/>
			<point x="73.2" y="720"/>
		</contour>
	</outline>
</glyph>
<glyph name="J" format="2">
	<advance width="530"/>
	<unicode hex="004A"/>
	<outline>
		<contour>
			<point x="399.549" y="0" type="curve" smooth="yes"/>
			<point x="120" y="0" type="line" smooth="yes"/>
			<point x="84" y="0"/>
			<point x="60" y="24"/>
			<point x="60" y="60" type="curve" smooth="yes"/>
			<point x="60" y="110" type="line" smooth="yes"/>
			<point x="60" y="114.8"/>
			<point x="63.2" y="118"/>
			<point x="68" y="118" type="curve" smooth="yes"/>
			<point x="340" y="118" type="line"/>
			<point x="340" y="712" type="line" smooth="yes"/>
			<point x="340" y="716.8"/>
			<point x="343.2" y="720"/>
			<point x="348" y="720" type="curve" smooth="yes"/>
			<point x="452" y="720" type="line" smooth="yes"/>
			<point x="456.8" y="720"/>
			<point x="460" y="716.8"/>
			<point x="460" y="712" type="curve" smooth="yes"/>
			<point x="460" y="60.451" type="line" smooth="yes"/>
			<point x="460" y="24.18"/>
			<point x="435.819" y="0"/>
		</contour>
	</outline>
</glyph>
<glyph name="K" format="2">
	<advance width="491"/>
	<unicode hex="004B"/>
	<outline>
		<contour>
			<point x="286.316" y="6.486" type="curve" smooth="yes"/>
			<point x="66.394" y="310.993" type="line" smooth="yes"/>
			<point x="45.158" y="340.397"/>
			<point x="45.158" y="379.603"/>
			<point x="66.394" y="409.007" type="curve" smooth="yes"/>
			<point x="286.316" y="713.514" type="line" smooth="yes"/>
			<point x="289.126" y="717.406"/>
			<point x="294.2" y="720"/>
			<point x="299" y="720" type="curve" smooth="yes"/>
			<point x="451" y="720" type="line"/>
			<point x="177" y="360" type="line"/>
			<point x="451" y="0" type="line"/>
			<point x="299" y="0" type="line" smooth="yes"/>
			<point x="294.2" y="0"/>
			<point x="289.126" y="2.594"/>
		</contour>
	</outline>
</glyph>
<glyph name="L" format="2">
	<advance width="530"/>
	<unicode hex="004C"/>
	<note>
		L
	</note>
	<outline>
		<contour>
			<point x="130.45" y="0" type="curve" smooth="yes"/>
			<point x="462" y="0" type="line" smooth="yes"/>
			<point x="466.8" y="0"/>
			<point x="470" y="3.2"/>
			<point x="470" y="8" type="curve" smooth="yes"/>
			<point x="470" y="110" type="line" smooth="yes"/>
			<point x="470" y="114.8"/>
			<point x="466.8" y="118"/>
			<point x="462" y="118" type="curve" smooth="yes"/>
			<point x="190" y="118" type="line"/>
			<point x="190" y="712" type="line" smooth="yes"/>
			<point x="190" y="716.8"/>
			<point x="186.8" y="720"/>
			<point x="182" y="720" type="curve" smooth="yes"/>
			<point x="78" y="720" type="line" smooth="yes"/>
			<point x="73.2" y="720"/>
			<point x="70" y="716.8"/>
			<point x="70" y="712" type="curve" smooth="yes"/>
			<point x="70" y="60.45" type="line" smooth="yes"/>
			<point x="70" y="24.18"/>
			<point x="94.18" y="0"/>
		</contour>
	</outline>
</glyph>
<glyph name="N" format="2">
	<advance width="620"/>
	<unicode hex="004E"/>
	<outline>
		<contour>
			<point x="70" y="10" type="curve" smooth="yes"/>
			<point x="70" y="712" type="line" smooth="yes"/>
			<point x="70" y="716.8"/>
			<point x="73.2" y="720"/>
			<point x="78" y="720" type="curve" smooth="yes"/>
			<point x="489.549" y="720" type="line" smooth="yes"/>
			<point x="525.82" y="720"/>
			<point x="550" y="695.82"/>
			<point x="550" y="659.549" type="curve" smooth="yes"/>
			<point x="550" y="8" type="line" smooth="yes"/>
			<point x="550" y="3.2"/>
			<point x="546.8" y="0"/>
			<point x="542" y="0" type="curve" smooth="yes"/>
			<point x="438" y="0" type="line" smooth="yes"/>
			<point x="433.2" y="0"/>
			<point x="430" y="3.2"/>
			<point x="430" y="8" type="curve" smooth="yes"/>
			<point x="430" y="602" type="line"/>
			<point x="190" y="602" type="line"/>
			<point x="190" y="8" type="line" smooth="yes"/>
			<point x="190" y="3.2"/>
			<point x="186.8" y="0"/>
			<point x="182" y="0" type="curve" smooth="yes"/>
			<point x="80" y="0" type="line" smooth="yes"/>
			<point x="74" y="0"/>
			<point x="70" y="4"/>
		</contour>
	</outline>
</glyph>
<glyph name="O" format="2">
	<advance width="620"/>
	<unicode hex="004F"/>
	<outline>
		<contour>
			<point x="70" y="659.549" type="curve" smooth="yes"/>
			<point x="70" y="60.451" type="line" smooth="yes"/>
			<point x="70" y="24.18"/>
			<point x="94.18" y="0"/>
			<point x="130.451" y="0" type="curve" smooth="yes"/>
			<point x="479.549" y="0" type="line" smooth="yes"/>
			<point x="515.82" y="0"/>
			<point x="540" y="24.18"/>
			<point x="540" y="60.451" type="curve" smooth="yes"/>
			<point x="540" y="659.549" type="line" smooth="yes"/>
			<point x="540" y="695.82"/>
			<point x="515.82" y="720"/>
			<point x="479.549" y="720" type="curve" smooth="yes"/>
			<point x="130.451" y="720" type="line" smooth="yes"/>
			<point x="94.18" y="720"/>
			<point x="70" y="695.82"/>
		</contour>
		<contour>
			<point x="428" y="110" type="line"/>
			<point x="182" y="110" type="line"/>
			<point x="182" y="610" type="line"/>
			<point x="428" y="610" type="line"/>
		</contour>
	</outline>
</glyph>
<glyph name="P" format="2">
	<advance width="570"/>
	<unicode hex="0050"/>
	<note>
		P
	</note>
	<outline>
		<contour>
			<point x="70" y="391" type="curve" smooth="yes"/>
			<point x="70" y="8" type="line" smooth="yes"/>
			<point x="70" y="3.2"/>
			<point x="73.2" y="0"/>
			<point x="78" y="0" type="curve" smooth="yes"/>
			<point x="192" y="0" type="line" smooth="yes"/>
			<point x="196.8" y="0"/>
			<point x="200" y="3.2"/>
			<point x="200" y="8" type="curve" smooth="yes"/>
			<point x="200" y="281" type="line"/>
			<point x="440" y="281" type="line" smooth="yes"/>
			<point x="476" y="281"/>
			<point x="500" y="305"/>
			<point x="500" y="341" type="curve" smooth="yes"/>
			<point x="500" y="660" type="line" smooth="yes"/>
			<point x="500" y="696"/>
			<point x="476" y="720"/>
			<point x="440" y="720" type="curve" smooth="yes"/>
			<point x="78" y="720" type="line" smooth="yes"/>
			<point x="73.2" y="720"/>
			<point x="70" y="716.8"/>
			<point x="70" y="712" type="curve" smooth="yes"/>
			<point x="70" y="610" type="line" smooth="yes"/>
			<point x="70" y="605.2"/>
			<point x="73.2" y="602"/>
			<point x="78" y="602" type="curve" smooth="yes"/>
			<point x="380" y="602" type="line"/>
			<point x="380" y="399" type="line"/>
			<point x="78" y="399" type="line" smooth="yes"/>
			<point x="73.2" y="399"/>
			<point x="70" y="395.8"/>
		</contour>
	</outline>
</glyph>
<glyph name="Q" format="2">
	<advance width="640"/>
	<unicode hex="0051"/>
	<note>
		Q
	</note>
	<outline>
		<contour>
			<point x="572" y="0" type="curve" smooth="yes"/>
			<point x="130.45" y="0" type="line" smooth="yes"/>
			<point x="94.18" y="0"/>
			<point x="70" y="24.18"/>
			<point x="70" y="60.45" type="curve" smooth="yes"/>
			<point x="70" y="659.55" type="line" smooth="yes"/>
			<point x="70" y="695.82"/>
			<point x="94.18" y="720"/>
			<point x="130.45" y="720" type="curve" smooth="yes"/>
			<point x="479.55" y="720" type="line" smooth="yes"/>
			<point x="515.82" y="720"/>
			<point x="540" y="695.82"/>
			<point x="540" y="659.55" type="curve" smooth="yes"/>
			<point x="540" y="246" type="line" smooth="yes"/>
			<point x="540" y="241.2"/>
			<point x="536.8" y="238"/>
			<point x="532" y="238" type="curve" smooth="yes"/>
			<point x="433" y="238" type="line" smooth="yes"/>
			<point x="428" y="238"/>
			<point x="425" y="241"/>
			<point x="425" y="246" type="curve" smooth="yes"/>
			<point x="425" y="607" type="line"/>
			<point x="185" y="607" type="line"/>
			<point x="185" y="113" type="line"/>
			<point x="572" y="113" type="line" smooth="yes"/>
			<point x="577" y="113"/>
			<point x="580" y="110"/>
			<point x="580" y="105" type="curve" smooth="yes"/>
			<point x="580" y="8" type="line" smooth="yes"/>
			<point x="580" y="3.2"/>
			<point x="576.8" y="0"/>
		</contour>
	</outline>
</glyph>
<glyph name="R" format="2">
	<advance width="560"/>
	<unicode hex="0052"/>
	<note>
		R
	</note>
	<outline>
		<contour>
			<point x="60" y="411" type="curve" smooth="yes"/>
			<point x="60" y="301" type="line"/>
			<point x="164" y="8" type="line" smooth="yes"/>
			<point x="166" y="3"/>
			<point x="170" y="0"/>
			<point x="175" y="0" type="curve" smooth="yes"/>
			<point x="297" y="0" type="line"/>
			<point x="190" y="301" type="line"/>
			<point x="430" y="301" type="line" smooth="yes"/>
			<point x="466" y="301"/>
			<point x="490" y="325"/>
			<point x="490" y="361" type="curve" smooth="yes"/>
			<point x="490" y="660" type="line" smooth="yes"/>
			<point x="490" y="696"/>
			<point x="466" y="720"/>
			<point x="430" y="720" type="curve" smooth="yes"/>
			<point x="68" y="720" type="line" smooth="yes"/>
			<point x="63.2" y="720"/>
			<point x="60" y="716.8"/>
			<point x="60" y="712" type="curve" smooth="yes"/>
			<point x="60" y="610" type="line" smooth="yes"/>
			<point x="60" y="605.2"/>
			<point x="63.2" y="602"/>
			<point x="68" y="602" type="curve" smooth="yes"/>
			<point x="370" y="602" type="line"/>
			<point x="370" y="419" type="line"/>
			<point x="68" y="419" type="line" smooth="yes"/>
			<point x="63.2" y="419"/>
			<point x="60" y="415.8"/>
		</contour>
	</outline>
</glyph>
<glyph name="S" format="2">
	<advance width="550"/>
	<unicode hex="0053"/>
	<outline>
		<contour>
			<point x="368" y="399" type="curve" smooth="yes"/>
			<point x="419.549" y="399" type="line" smooth="yes"/>
			<point x="455.82" y="399"/>
			<point x="480" y="374.82"/>
			<point x="480" y="338.549" type="curve" smooth="yes"/>
			<point x="480" y="59.988" type="line" smooth="yes"/>
			<point x="480" y="23.995"/>
			<point x="456.005" y="0"/>
			<point x="420.012" y="0" type="curve" smooth="yes"/>
			<point x="120" y="0" type="line" smooth="yes"/>
			<point x="84" y="0"/>
			<point x="60" y="24"/>
			<point x="60" y="60" type="curve" smooth="yes"/>
			<point x="60" y="110" type="line" smooth="yes"/>
			<point x="60" y="114.8"/>
			<point x="63.2" y="118"/>
			<point x="68.001" y="118" type="curve" smooth="yes"/>
			<point x="360" y="118" type="line"/>
			<point x="360" y="391" type="line" smooth="yes"/>
			<point x="360" y="395.8"/>
			<point x="363.2" y="399"/>
		</contour>
		<contour>
			<point x="182" y="320" type="curve" smooth="yes"/>
			<point x="130.451" y="320" type="line" smooth="yes"/>
			<point x="94.18" y="320"/>
			<point x="70" y="344.181"/>
			<point x="70" y="380.452" type="curve" smooth="yes"/>
			<point x="70" y="660.013" type="line" smooth="yes"/>
			<point x="70" y="696.005"/>
			<point x="93.995" y="720"/>
			<point x="129.988" y="720" type="curve" smooth="yes"/>
			<point x="419.999" y="720" type="line" smooth="yes"/>
			<point x="456" y="720"/>
			<point x="480" y="696"/>
			<point x="480" y="660" type="curve" smooth="yes"/>
			<point x="480" y="610" type="line" smooth="yes"/>
			<point x="480" y="605.2"/>
			<point x="476.8" y="602"/>
			<point x="472" y="602" type="curve" smooth="yes"/>
			<point x="190" y="602" type="line"/>
			<point x="190" y="328" type="line" smooth="yes"/>
			<point x="190" y="323.2"/>
			<point x="186.8" y="320"/>
		</contour>
	</outline>
</glyph>
<glyph name="U" format="2">
	<advance width="620"/>
	<unicode hex="0055"/>
	<outline>
		<contour>
			<point x="182" y="720" type="curve" smooth="yes"/>
			<point x="78" y="720" type="line" smooth="yes"/>
			<point x="73.2" y="720"/>
			<point x="70" y="716.8"/>
			<point x="70" y="712" type="curve" smooth="yes"/>
			<point x="70" y="60.451" type="line" smooth="yes"/>
			<point x="70" y="24.18"/>
			<point x="94.18" y="0"/>
			<point x="130.451" y="0" type="curve" smooth="yes"/>
			<point x="489.549" y="0" type="line" smooth="yes"/>
			<point x="525.82" y="0"/>
			<point x="550" y="24.18"/>
			<point x="550" y="60.451" type="curve" smooth="yes"/>
			<point x="550" y="712" type="line" smooth="yes"/>
			<point x="550" y="716.8"/>
			<point x="546.8" y="720"/>
			<point x="542" y="720" type="curve" smooth="yes"/>
			<point x="438" y="720" type="line" smooth="yes"/>
			<point x="433.2" y="720"/>
			<point x="430" y="716.8"/>
			<point x="430" y="712" type="curve" smooth="yes"/>
			<point x="430" y="118" type="line"/>
			<point x="190" y="118" type="line"/>
			<point x="190" y="712" type="line" smooth="yes"/>
			<point x="190" y="716.8"/>
			<point x="186.8" y="720"/>
		</contour>
	</outline>
</glyph>
<glyph name="V" format="2">
	<advance width="597.65"/>
	<unicode hex="0056"/>
	<outline>
		<contour>
			<point x="167.82" y="720" type="curve" smooth="yes"/>
			<point x="57.82" y="720" type="line" smooth="yes"/>
			<point x="52.42" y="720"/>
			<point x="49.34" y="716.437"/>
			<point x="50.119" y="711.093" type="curve" smooth="yes"/>
			<point x="145.096" y="59.818" type="line" smooth="yes"/>
			<point x="150.331" y="23.927"/>
			<point x="178.001" y="0"/>
			<point x="214.271" y="0" type="curve" smooth="yes"/>
			<point x="384.369" y="0" type="line" smooth="yes"/>
			<point x="420.639" y="0"/>
			<point x="448.277" y="23.932"/>
			<point x="453.462" y="59.83" type="curve" smooth="yes"/>
			<point x="547.533" y="711.092" type="line" smooth="yes"/>
			<point x="548.305" y="716.437"/>
			<point x="545.22" y="720"/>
			<point x="539.82" y="720" type="curve" smooth="yes"/>
			<point x="429.82" y="720" type="line" smooth="yes"/>
			<point x="425.02" y="720"/>
			<point x="421.435" y="716.823"/>
			<point x="420.857" y="712.058" type="curve" smooth="yes"/>
			<point x="348.82" y="118" type="line"/>
			<point x="248.82" y="118" type="line"/>
			<point x="176.783" y="712.058" type="line" smooth="yes"/>
			<point x="176.205" y="716.823"/>
			<point x="172.62" y="720"/>
		</contour>
	</outline>
</glyph>
<glyph name="W" format="2">
	<advance width="737.65"/>
	<unicode hex="0057"/>
	<outline>
		<contour>
			<point x="167.82" y="720" type="curve" smooth="yes"/>
			<point x="57.82" y="720" type="line" smooth="yes"/>
			<point x="52.42" y="720"/>
			<point x="49.34" y="716.437"/>
			<point x="50.119" y="711.093" type="curve" smooth="yes"/>
			<point x="145.096" y="59.818" type="line" smooth="yes"/>
			<point x="150.331" y="23.927"/>
			<point x="178.001" y="0"/>
			<point x="214.272" y="0" type="curve" smooth="yes"/>
			<point x="524.368" y="0" type="line" smooth="yes"/>
			<point x="560.639" y="0"/>
			<point x="588.277" y="23.932"/>
			<point x="593.462" y="59.83" type="curve" smooth="yes"/>
			<point x="687.533" y="711.092" type="line" smooth="yes"/>
			<point x="688.305" y="716.437"/>
			<point x="685.22" y="720"/>
			<point x="679.82" y="720" type="curve" smooth="yes"/>
			<point x="569.82" y="720" type="line" smooth="yes"/>
			<point x="565.02" y="720"/>
			<point x="561.435" y="716.823"/>
			<point x="560.857" y="712.058" type="curve" smooth="yes"/>
			<point x="488.82" y="118" type="line"/>
			<point x="248.82" y="118" type="line"/>
			<point x="176.783" y="712.058" type="line" smooth="yes"/>
			<point x="176.205" y="716.823"/>
			<point x="172.62" y="720"/>
		</contour>
	</outline>
</glyph>
<glyph name="X" format="2">
	<advance width="626"/>
	<unicode hex="0058"/>
	<note>
		X
	</note>
	<outline>
		<contour>
			<point x="453.29" y="7.53" type="curve" smooth="yes"/>
			<point x="343.45" y="313.11" type="line" smooth="yes"/>
			<point x="331.18" y="347.25"/>
			<point x="331.02" y="392.81"/>
			<point x="343.04" y="427.04" type="curve" smooth="yes"/>
			<point x="443.35" y="712.45" type="line" smooth="yes"/>
			<point x="444.94" y="716.98"/>
			<point x="449.2" y="720"/>
			<point x="454" y="720" type="curve" smooth="yes"/>
			<point x="576" y="720" type="line"/>
			<point x="449" y="370" type="line"/>
			<point x="586" y="0" type="line"/>
			<point x="464" y="0" type="line" smooth="yes"/>
			<point x="459.2" y="0"/>
			<point x="454.92" y="3.01"/>
		</contour>
		<contour>
			<point x="162" y="0" type="curve" smooth="yes"/>
			<point x="40" y="0" type="line"/>
			<point x="177" y="370" type="line"/>
			<point x="50" y="720" type="line"/>
			<point x="172" y="720" type="line" smooth="yes"/>
			<point x="176.8" y="720"/>
			<point x="181" y="717"/>
			<point x="182.65" y="712.45" type="curve" smooth="yes"/>
			<point x="283" y="427" type="line" smooth="yes"/>
			<point x="295" y="393"/>
			<point x="295" y="347"/>
			<point x="283" y="313" type="curve" smooth="yes"/>
			<point x="172.71" y="7.53" type="line" smooth="yes"/>
			<point x="171" y="3"/>
			<point x="166.8" y="0"/>
		</contour>
	</outline>
</glyph>
<glyph name="Y" format="2">
	<advance width="590"/>
	<unicode hex="0059"/>
	<note>
		Y
	</note>
	<outline>
		<contour>
			<point x="167.89" y="720" type="curve" smooth="yes"/>
			<point x="57.89" y="720" type="line" smooth="yes"/>
			<point x="52.49" y="720"/>
			<point x="49.38" y="716.43"/>
			<point x="50.11" y="711.08" type="curve" smooth="yes"/>
			<point x="100.7" y="340.89" type="line" smooth="yes"/>
			<point x="105.62" y="304.96"/>
			<point x="133.07" y="281"/>
			<point x="169.34" y="281" type="curve" smooth="yes"/>
			<point x="361" y="281" type="line"/>
			<point x="327" y="9" type="line" smooth="yes"/>
			<point x="326" y="4"/>
			<point x="329" y="0"/>
			<point x="335" y="0" type="curve" smooth="yes"/>
			<point x="438" y="0" type="line" smooth="yes"/>
			<point x="443" y="0"/>
			<point x="446" y="3"/>
			<point x="447" y="8" type="curve" smooth="yes"/>
			<point x="540" y="711" type="line" smooth="yes"/>
			<point x="540" y="716"/>
			<point x="537" y="720"/>
			<point x="532" y="720" type="curve" smooth="yes"/>
			<point x="422" y="720" type="line" smooth="yes"/>
			<point x="417" y="720"/>
			<point x="413" y="717"/>
			<point x="413" y="712" type="curve" smooth="yes"/>
			<point x="374" y="399" type="line"/>
			<point x="215.89" y="399" type="line"/>
			<point x="176.88" y="712.06" type="line" smooth="yes"/>
			<point x="176.29" y="716.82"/>
			<point x="172.69" y="720"/>
		</contour>
	</outline>
</glyph>
<glyph name="Z" format="2">
	<advance width="560"/>
	<unicode hex="005A"/>
	<outline>
		<contour>
			<point x="60" y="118" type="line"/>
			<point x="320.275" y="473.545" type="line" smooth="yes"/>
			<point x="323.11" y="477.418"/>
			<point x="328.2" y="480"/>
			<point x="333" y="480" type="curve" smooth="yes"/>
			<point x="470" y="480" type="line"/>
			<point x="206" y="118" type="line"/>
		</contour>
		<contour>
			<point x="500" y="659.549" type="curve" smooth="yes"/>
			<point x="500" y="610" type="line" smooth="yes"/>
			<point x="500" y="605.2"/>
			<point x="496.8" y="602"/>
			<point x="492" y="602" type="curve" smooth="yes"/>
			<point x="68" y="602" type="line" smooth="yes"/>
			<point x="63.2" y="602"/>
			<point x="60" y="605.2"/>
			<point x="60" y="610" type="curve" smooth="yes"/>
			<point x="60" y="712" type="line" smooth="yes"/>
			<point x="60" y="716.8"/>
			<point x="63.2" y="720"/>
			<point x="68" y="720" type="curve" smooth="yes"/>
			<point x="439.549" y="720" type="line" smooth="yes"/>
			<point x="475.819" y="720"/>
			<point x="500" y="695.819"/>
		</contour>
		<contour>
			<point x="492" y="0" type="curve" smooth="yes"/>
			<point x="120.451" y="0" type="line" smooth="yes"/>
			<point x="84.181" y="0"/>
			<point x="60" y="24.181"/>
			<point x="60" y="60.451" type="curve" smooth="yes"/>
			<point x="60" y="118" type="line"/>
			<point x="492" y="118" type="line" smooth="yes"/>
			<point x="496.8" y="118"/>
			<point x="500" y="114.8"/>
			<point x="500" y="110" type="curve" smooth="yes"/>
			<point x="500" y="8" type="line" smooth="yes"/>
			<point x="500" y="3.2"/>
			<point x="496.8" y="0"/>
		</contour>
	</outline>
</glyph>
<glyph name="backslash" format="2">
	<advance width="353"/>
	<unicode hex="005C"/>
	<note>
		backslash
	</note>
	<outline>
		<contour>
			<point x="77.05" y="771.03" type="curve" smooth="yes"/>
			<point x="170.35" y="782.49" type="line" smooth="yes"/>
			<point x="175.11" y="783.07"/>
			<point x="178.68" y="780.29"/>
			<point x="179.26" y="775.52" type="curve" smooth="yes"/>
			<point x="283.34" y="-72.11" type="line" smooth="yes"/>
			<point x="283.92" y="-76.88"/>
			<point x="281.14" y="-80.44"/>
			<point x="276.37" y="-81.03" type="curve" smooth="yes"/>
			<point x="183.07" y="-92.49" type="line" smooth="yes"/>
			<point x="178.31" y="-93.07"/>
			<point x="174.74" y="-90.29"/>
			<point x="174.16" y="-85.52" type="curve" smooth="yes"/>
			<point x="70.08" y="762.11" type="line" smooth="yes"/>
			<point x="69.5" y="766.88"/>
			<point x="72.28" y="770.44"/>
		</contour>
	</outline>
</glyph>
<glyph name="underscore" format="2">
	<advance width="540"/>
	<unicode hex="005F"/>
	<outline>
		<contour>
			<point x="50" y="-109.717" type="curve" smooth="yes"/>
			<point x="50" y="-7.717" type="line" smooth="yes"/>
			<point x="50" y="-2.917"/>
			<point x="53.2" y="0.283"/>
			<point x="58" y="0.283" type="curve" smooth="yes"/>
			<point x="482" y="0.283" type="line" smooth="yes"/>
			<point x="486.8" y="0.283"/>
			<point x="490" y="-2.917"/>
			<point x="490" y="-7.717" type="curve" smooth="yes"/>
			<point x="490" y="-109.717" type="line" smooth="yes"/>
			<point x="490" y="-114.517"/>
			<point x="486.8" y="-117.717"/>
			<point x="482" y="-117.717" type="curve" smooth="yes"/>
			<point x="58" y="-117.717" type="line" smooth="yes"/>
			<point x="53.2" y="-117.717"/>
			<point x="50" y="-114.517"/>
		</contour>
	</outline>
</glyph>
<glyph name="A.left" format="2">
	<advance width="413.64"/>
	<outline>
		<contour>
			<point x="-39" y="660.193" type="curve" smooth="yes"/>
			<point x="-99.878" y="246.905" type="line" smooth="yes"/>
			<point x="-100.665" y="241.562"/>
			<point x="-97.59" y="238"/>
			<point x="-92.19" y="238" type="curve" smooth="yes"/>
			<point x="12.81" y="238" type="line" smooth="yes"/>
			<point x="17.61" y="238"/>
			<point x="21.196" y="241.177"/>
			<point x="21.775" y="245.942" type="curve" smooth="yes"/>
			<point x="64.81" y="600" type="line"/>
			<point x="164.81" y="600" type="line"/>
			<point x="236.844" y="7.942" type="line" smooth="yes"/>
			<point x="237.424" y="3.177"/>
			<point x="241.01" y="0"/>
			<point x="245.81" y="0" type="curve" smooth="yes"/>
			<point x="355.81" y="0" type="line" smooth="yes"/>
			<point x="361.21" y="0"/>
			<point x="364.295" y="3.563"/>
			<point x="363.523" y="8.908" type="curve" smooth="yes"/>
			<point x="269.452" y="660.17" type="line" smooth="yes"/>
			<point x="264.267" y="696.068"/>
			<point x="236.629" y="720"/>
			<point x="200.359" y="720" type="curve" smooth="yes"/>
			<point x="30.261" y="720" type="line" smooth="yes"/>
			<point x="-6.009" y="720"/>
			<point x="-33.714" y="696.077"/>
		</contour>
	</outline>
</glyph>
<glyph name="A.right" format="2">
	<advance width="413.64"/>
	<outline>
		<contour>
			<point x="452.64" y="660.193" type="curve" smooth="yes"/>
			<point x="513.518" y="246.905" type="line" smooth="yes"/>
			<point x="514.305" y="241.562"/>
			<point x="511.23" y="238"/>
			<point x="505.83" y="238" type="curve" smooth="yes"/>
			<point x="400.83" y="238" type="line" smooth="yes"/>
			<point x="396.03" y="238"/>
			<point x="392.444" y="241.177"/>
			<point x="391.865" y="245.942" type="curve" smooth="yes"/>
			<point x="348.83" y="600" type="line"/>
			<point x="248.83" y="600" type="line"/>
			<point x="176.796" y="7.942" type="line" smooth="yes"/>
			<point x="176.217" y="3.177"/>
			<point x="172.63" y="0"/>
			<point x="167.83" y="0" type="curve" smooth="yes"/>
			<point x="57.83" y="0" type="line" smooth="yes"/>
			<point x="52.43" y="0"/>
			<point x="49.345" y="3.563"/>
			<point x="50.117" y="8.908" type="curve" smooth="yes"/>
			<point x="144.188" y="660.17" type="line" smooth="yes"/>
			<point x="149.373" y="696.068"/>
			<point x="177.011" y="720"/>
			<point x="213.281" y="720" type="curve" smooth="yes"/>
			<point x="383.379" y="720" type="line" smooth="yes"/>
			<point x="419.649" y="720"/>
			<point x="447.354" y="696.077"/>
		</contour>
	</outline>
</glyph>
<glyph name="A_J.calt" format="2">
	<advance width="413"/>
	<note>
		A_J.calt
	</note>
	<outline>
		<contour>
			<point x="452.62" y="660.17" type="curve" smooth="yes"/>
			<point x="452.63" y="660.18" type="line"/>
			<point x="513.51" y="246.9" type="line" smooth="yes"/>
			<point x="514.29" y="241.56"/>
			<point x="511.21" y="238.01"/>
			<point x="505.82" y="238.01" type="curve" smooth="yes"/>
			<point x="400.82" y="238.01" type="line" smooth="yes"/>
			<point x="396.02" y="238.01"/>
			<point x="392.44" y="241.18"/>
			<point x="391.87" y="245.93" type="curve" smooth="yes"/>
			<point x="348.84" y="599.99" type="line"/>
			<point x="248.84" y="599.99" type="line"/>
			<point x="176.81" y="7.93" type="line" smooth="yes"/>
			<point x="176.24" y="3.18"/>
			<point x="172.66" y="0.01"/>
			<point x="167.86" y="0.01" type="curve" smooth="yes"/>
			<point x="57.86" y="0.01" type="line" smooth="yes"/>
			<point x="52.47" y="0.01"/>
			<point x="49.39" y="3.56"/>
			<point x="50.15" y="8.9" type="curve" smooth="yes"/>
			<point x="144.22" y="660.16" type="line" smooth="yes"/>
			<point x="149.39" y="696.05"/>
			<point x="177.03" y="719.98"/>
			<point x="213.29" y="719.98" type="curve" smooth="yes"/>
			<point x="383.39" y="719.98" type="line" smooth="yes"/>
			<point x="419.65" y="719.98"/>
			<point x="447.34" y="696.06"/>
		</contour>
	</outline>
</glyph>
<glyph name="C.ss01" format="2">
	<advance width="570"/>
	<outline>
		<contour>
			<point x="70" y="59.988" type="curve" smooth="yes"/>
			<point x="70" y="472" type="line" smooth="yes"/>
			<point x="70" y="476.8"/>
			<point x="73.2" y="480"/>
			<point x="78" y="480" type="curve" smooth="yes"/>
			<point x="182" y="480" type="line" smooth="yes"/>
			<point x="186.8" y="480"/>
			<point x="190" y="476.8"/>
			<point x="190" y="472" type="curve" smooth="yes"/>
			<point x="190" y="118" type="line"/>
			<point x="502" y="118" type="line" smooth="yes"/>
			<point x="506.8" y="118"/>
			<point x="510" y="114.8"/>
			<point x="510" y="110" type="curve" smooth="yes"/>
			<point x="510" y="60" type="line" smooth="yes"/>
			<point x="510" y="24"/>
			<point x="486" y="0"/>
			<point x="450" y="0" type="curve" smooth="yes"/>
			<point x="129.982" y="0" type="line" smooth="yes"/>
			<point x="93.993" y="0"/>
			<point x="70" y="23.995"/>
		</contour>
		<contour>
			<point x="502" y="602" type="curve" smooth="yes"/>
			<point x="77.748" y="602" type="line" smooth="yes"/>
			<point x="73.099" y="602"/>
			<point x="70" y="605.099"/>
			<point x="70" y="609.748" type="curve" smooth="yes"/>
			<point x="70" y="660.012" type="line" smooth="yes"/>
			<point x="70" y="696.005"/>
			<point x="93.993" y="720"/>
			<point x="129.982" y="720" type="curve" smooth="yes"/>
			<point x="450" y="720" type="line" smooth="yes"/>
			<point x="486" y="720"/>
			<point x="510" y="696"/>
			<point x="510" y="660" type="curve" smooth="yes"/>
			<point x="510" y="610" type="line" smooth="yes"/>
			<point x="510" y="605.2"/>
			<point x="506.8" y="602"/>
		</contour>
	</outline>
</glyph>
<glyph name="F.calt" format="2">
	<advance width="500"/>
	<outline>
		<contour>
			<point x="88" y="720" type="curve" smooth="yes"/>
			<point x="432" y="720" type="line" smooth="yes"/>
			<point x="437" y="720"/>
			<point x="440" y="717"/>
			<point x="440" y="712" type="curve" smooth="yes"/>
			<point x="440" y="610" type="line" smooth="yes"/>
			<point x="440" y="605"/>
			<point x="437" y="602"/>
			<point x="432" y="602" type="curve" smooth="yes"/>
			<point x="88" y="602" type="line" smooth="yes"/>
			<point x="83" y="602"/>
			<point x="80" y="605"/>
			<point x="80" y="610" type="curve" smooth="yes"/>
			<point x="80" y="712" type="line" smooth="yes"/>
			<point x="80" y="717"/>
			<point x="83" y="720"/>
		</contour>
		<contour>
			<point x="0" y="8" type="curve" smooth="yes"/>
			<point x="0" y="411" type="line" smooth="yes"/>
			<point x="0" y="416"/>
			<point x="3" y="419"/>
			<point x="8" y="419" type="curve" smooth="yes"/>
			<point x="312" y="419" type="line" smooth="yes"/>
			<point x="317" y="419"/>
			<point x="320" y="416"/>
			<point x="320" y="411" type="curve" smooth="yes"/>
			<point x="320" y="309" type="line" smooth="yes"/>
			<point x="320" y="304"/>
			<point x="317" y="301"/>
			<point x="312" y="301" type="curve" smooth="yes"/>
			<point x="120" y="301" type="line"/>
			<point x="120" y="8" type="line" smooth="yes"/>
			<point x="120" y="3"/>
			<point x="117" y="0"/>
			<point x="112" y="0" type="curve" smooth="yes"/>
			<point x="8" y="0" type="line" smooth="yes"/>
			<point x="3" y="0"/>
			<point x="0" y="3"/>
		</contour>
	</outline>
</glyph>
<glyph name="F_B.calt" format="2">
	<advance width="540"/>
	<outline>
		<contour>
			<point x="70" y="610" type="curve" smooth="yes"/>
			<point x="70" y="712" type="line" smooth="yes"/>
			<point x="70" y="717"/>
			<point x="73" y="720"/>
			<point x="78" y="720" type="curve" smooth="yes"/>
			<point x="250" y="720" type="line" smooth="yes"/>
			<point x="286" y="720"/>
			<point x="310" y="696"/>
			<point x="310" y="660" type="curve" smooth="yes"/>
			<point x="310" y="439" type="line"/>
			<point x="410" y="439" type="line" smooth="yes"/>
			<point x="446" y="439"/>
			<point x="470" y="415"/>
			<point x="470" y="379" type="curve" smooth="yes"/>
			<point x="470" y="60" type="line" smooth="yes"/>
			<point x="470" y="24"/>
			<point x="446" y="0"/>
			<point x="410" y="0" type="curve" smooth="yes"/>
			<point x="-2" y="0" type="line" smooth="yes"/>
			<point x="-7" y="0"/>
			<point x="-10" y="3"/>
			<point x="-10" y="8" type="curve" smooth="yes"/>
			<point x="-10" y="110" type="line" smooth="yes"/>
			<point x="-10" y="115"/>
			<point x="-7" y="118"/>
			<point x="-2" y="118" type="curve" smooth="yes"/>
			<point x="350" y="118" type="line"/>
			<point x="350" y="321" type="line"/>
			<point x="198" y="321" type="line" smooth="yes"/>
			<point x="193" y="321"/>
			<point x="190" y="324"/>
			<point x="190" y="329" type="curve" smooth="yes"/>
			<point x="190" y="602" type="line"/>
			<point x="78" y="602" type="line" smooth="yes"/>
			<point x="73" y="602"/>
			<point x="70" y="605"/>
		</contour>
	</outline>
</glyph>
<glyph name="L_A.calt" format="2">
	<advance width="413"/>
	<note>
		L_A.calt
	</note>
	<outline>
		<contour>
			<point x="-39.01" y="660.17" type="curve" smooth="yes"/>
			<point x="-39" y="660.18" type="line"/>
			<point x="-99.87" y="246.9" type="line" smooth="yes"/>
			<point x="-100.65" y="241.56"/>
			<point x="-97.58" y="238.01"/>
			<point x="-92.18" y="238.01" type="curve" smooth="yes"/>
			<point x="12.81" y="238.01" type="line" smooth="yes"/>
			<point x="17.61" y="238.01"/>
			<point x="21.19" y="241.18"/>
			<point x="21.76" y="245.93" type="curve" smooth="yes"/>
			<point x="64.79" y="599.99" type="line"/>
			<point x="164.79" y="599.99" type="line"/>
			<point x="236.82" y="7.93" type="line" smooth="yes"/>
			<point x="237.39" y="3.18"/>
			<point x="240.97" y="0.01"/>
			<point x="245.77" y="0.01" type="curve" smooth="yes"/>
			<point x="355.77" y="0.01" type="line" smooth="yes"/>
			<point x="361.16" y="0.01"/>
			<point x="364.24" y="3.56"/>
			<point x="363.47" y="8.9" type="curve" smooth="yes"/>
			<point x="269.4" y="660.16" type="line" smooth="yes"/>
			<point x="264.23" y="696.05"/>
			<point x="236.59" y="719.98"/>
			<point x="200.33" y="719.98" type="curve" smooth="yes"/>
			<point x="30.23" y="719.98" type="line" smooth="yes"/>
			<point x="-6.03" y="719.98"/>
			<point x="-33.72" y="696.06"/>
		</contour>
	</outline>
</glyph>
<glyph name="L_B.calt" format="2">
	<advance width="460"/>
	<note>
		B.calt
	</note>
	<outline>
		<contour>
			<point x="-90" y="609.98" type="curve" smooth="yes"/>
			<point x="-90" y="610" type="line"/>
			<point x="-90" y="712" type="line" smooth="yes"/>
			<point x="-90" y="716.79"/>
			<point x="-86.8" y="719.99"/>
			<point x="-82.01" y="719.99" type="curve" smooth="yes"/>
			<point x="169.99" y="719.99" type="line" smooth="yes"/>
			<point x="205.99" y="719.99"/>
			<point x="229.98" y="696"/>
			<point x="229.98" y="660" type="curve" smooth="yes"/>
			<point x="229.98" y="439" type="line"/>
			<point x="329.98" y="439" type="line" smooth="yes"/>
			<point x="365.98" y="439"/>
			<point x="389.97" y="415.01"/>
			<point x="389.97" y="379.01" type="curve" smooth="yes"/>
			<point x="389.97" y="60" type="line" smooth="yes"/>
			<point x="389.97" y="24.02"/>
			<point x="365.98" y="0.02"/>
			<point x="329.98" y="0.02" type="curve" smooth="yes"/>
			<point x="67.98" y="0.02" type="line" smooth="yes"/>
			<point x="63.18" y="0.02"/>
			<point x="59.99" y="3.21"/>
			<point x="59.99" y="8.01" type="curve" smooth="yes"/>
			<point x="59.99" y="110.01" type="line" smooth="yes"/>
			<point x="59.99" y="114.8"/>
			<point x="63.18" y="118"/>
			<point x="67.98" y="118" type="curve" smooth="yes"/>
			<point x="269.98" y="118" type="line"/>
			<point x="269.98" y="321" type="line"/>
			<point x="117.98" y="321" type="line" smooth="yes"/>
			<point x="113.18" y="321"/>
			<point x="109.99" y="324.19"/>
			<point x="109.99" y="328.99" type="curve" smooth="yes"/>
			<point x="109.99" y="601.99" type="line"/>
			<point x="-82.01" y="601.99" type="line" smooth="yes"/>
			<point x="-86.8" y="601.99"/>
			<point x="-90" y="605.18"/>
		</contour>
	</outline>
</glyph>
<glyph name="M.ss01" format="2">
	<advance width="740"/>
	<outline>
		<contour>
			<point x="70" y="8" type="curve" smooth="yes"/>
			<point x="70" y="472" type="line" smooth="yes"/>
			<point x="70" y="476.8"/>
			<point x="73.2" y="480"/>
			<point x="78" y="480" type="curve" smooth="yes"/>
			<point x="182" y="480" type="line" smooth="yes"/>
			<point x="186.8" y="480"/>
			<point x="190" y="476.8"/>
			<point x="190" y="472" type="curve" smooth="yes"/>
			<point x="190" y="8" type="line" smooth="yes"/>
			<point x="190" y="3.2"/>
			<point x="186.8" y="0"/>
			<point x="182" y="0" type="curve" smooth="yes"/>
			<point x="78" y="0" type="line" smooth="yes"/>
			<point x="73.2" y="0"/>
			<point x="70" y="3.2"/>
		</contour>
		<contour>
			<point x="550" y="602" type="line"/>
			<point x="78" y="602" type="line" smooth="yes"/>
			<point x="73.2" y="602"/>
			<point x="70" y="605.2"/>
			<point x="70" y="610" type="curve" smooth="yes"/>
			<point x="70" y="712" type="line" smooth="yes"/>
			<point x="70" y="716.8"/>
			<point x="73.2" y="720"/>
			<point x="78" y="720" type="curve" smooth="yes"/>
			<point x="609.549" y="720" type="line" smooth="yes"/>
			<point x="645.819" y="720"/>
			<point x="670" y="695.82"/>
			<point x="670" y="659.549" type="curve" smooth="yes"/>
			<point x="670" y="8" type="line" smooth="yes"/>
			<point x="670" y="3.2"/>
			<point x="666.8" y="0"/>
			<point x="662" y="0" type="curve" smooth="yes"/>
			<point x="558" y="0" type="line" smooth="yes"/>
			<point x="553.2" y="0"/>
			<point x="550" y="3.2"/>
			<point x="550" y="8" type="curve" smooth="yes"/>
		</contour>
	</outline>
</glyph>
<glyph name="M.ss02" format="2">
	<advance width="740"/>
	<outline>
		<contour>
			<point x="69.989" y="659.56" type="curve" smooth="yes"/>
			<point x="70" y="8" type="line" smooth="yes"/>
			<point x="70" y="3.2"/>
			<point x="73.2" y="0"/>
			<point x="78" y="0" type="curve" smooth="yes"/>
			<point x="182" y="0" type="line" smooth="yes"/>
			<point x="186.8" y="0"/>
			<point x="190" y="3.2"/>
			<point x="190" y="8" type="curve" smooth="yes"/>
			<point x="190" y="602" type="line"/>
			<point x="290.996" y="602" type="line"/>
			<point x="412.996" y="542" type="line"/>
			<point x="550" y="542" type="line"/>
			<point x="550" y="8" type="line" smooth="yes"/>
			<point x="550" y="3.2"/>
			<point x="553.2" y="0"/>
			<point x="558" y="0" type="curve" smooth="yes"/>
			<point x="662" y="0" type="line" smooth="yes"/>
			<point x="666.8" y="0"/>
			<point x="670" y="3.2"/>
			<point x="670" y="8" type="curve" smooth="yes"/>
			<point x="670" y="599.549" type="line" smooth="yes"/>
			<point x="670" y="635.82"/>
			<point x="645.819" y="660"/>
			<point x="609.549" y="660" type="curve" smooth="yes"/>
			<point x="438" y="660" type="line"/>
			<point x="309" y="720" type="line"/>
			<point x="130.44" y="720.011" type="line" smooth="yes"/>
			<point x="94.17" y="720.011"/>
			<point x="69.989" y="695.831"/>
		</contour>
	</outline>
</glyph>
<glyph name="N.ss01" format="2">
	<advance width="620"/>
	<outline>
		<contour>
			<point x="70" y="10" type="curve" smooth="yes"/>
			<point x="70" y="472" type="line" smooth="yes"/>
			<point x="70" y="476.8"/>
			<point x="73.2" y="480"/>
			<point x="78" y="480" type="curve" smooth="yes"/>
			<point x="182" y="480" type="line" smooth="yes"/>
			<point x="186.8" y="480"/>
			<point x="190" y="476.8"/>
			<point x="190" y="472" type="curve" smooth="yes"/>
			<point x="190" y="8" type="line" smooth="yes"/>
			<point x="190" y="3.2"/>
			<point x="186.8" y="0"/>
			<point x="182" y="0" type="curve" smooth="yes"/>
			<point x="80" y="0" type="line" smooth="yes"/>
			<point x="74" y="0"/>
			<point x="70" y="4"/>
		</contour>
		<contour>
			<point x="430" y="602" type="line"/>
			<point x="79.93" y="602" type="line" smooth="yes"/>
			<point x="73.972" y="602"/>
			<point x="70" y="605.972"/>
			<point x="70" y="611.931" type="curve" smooth="yes"/>
			<point x="70" y="712" type="line" smooth="yes"/>
			<point x="70" y="716.8"/>
			<point x="73.2" y="720"/>
			<point x="78" y="720" type="curve" smooth="yes"/>
			<point x="489.549" y="720" type="line" smooth="yes"/>
			<point x="525.82" y="720"/>
			<point x="550" y="695.82"/>
			<point x="550" y="659.549" type="curve" smooth="yes"/>
			<point x="550" y="8" type="line" smooth="yes"/>
			<point x="550" y="3.2"/>
			<point x="546.8" y="0"/>
			<point x="542" y="0" type="curve" smooth="yes"/>
			<point x="438" y="0" type="line" smooth="yes"/>
			<point x="433.2" y="0"/>
			<point x="430" y="3.2"/>
			<point x="430" y="8" type="curve" smooth="yes"/>
		</contour>
	</outline>
</glyph>
<glyph name="P.calt" format="2">
	<advance width="480"/>
	<note>
		P.calt
	</note>
	<outline>
		<contour>
			<point x="-10.01" y="391.03" type="curve" smooth="yes"/>
			<point x="-10" y="8" type="line" smooth="yes"/>
			<point x="-10" y="3.2"/>
			<point x="-6.8" y="0.01"/>
			<point x="-2.01" y="0.01" type="curve" smooth="yes"/>
			<point x="111.99" y="0.01" type="line" smooth="yes"/>
			<point x="116.78" y="0.01"/>
			<point x="119.98" y="3.2"/>
			<point x="119.98" y="8" type="curve" smooth="yes"/>
			<point x="119.98" y="281" type="line"/>
			<point x="359.98" y="281" type="line" smooth="yes"/>
			<point x="395.98" y="281"/>
			<point x="419.98" y="305"/>
			<point x="419.98" y="341" type="curve" smooth="yes"/>
			<point x="419.98" y="660" type="line" smooth="yes"/>
			<point x="419.98" y="696"/>
			<point x="395.98" y="720"/>
			<point x="359.98" y="720" type="curve" smooth="yes"/>
			<point x="78" y="720" type="line" smooth="yes"/>
			<point x="73" y="720"/>
			<point x="70" y="717"/>
			<point x="70" y="712" type="curve" smooth="yes"/>
			<point x="70" y="610" type="line" smooth="yes"/>
			<point x="70" y="605"/>
			<point x="73" y="602"/>
			<point x="78" y="602" type="curve" smooth="yes"/>
			<point x="299.98" y="602.02" type="line"/>
			<point x="299.98" y="399.02" type="line"/>
			<point x="-2.02" y="399.02" type="line" smooth="yes"/>
			<point x="-6.81" y="399.02"/>
			<point x="-10.01" y="395.82"/>
		</contour>
	</outline>
</glyph>
<glyph name="R.calt" format="2">
	<advance width="490"/>
	<note>
		R.calt
	</note>
	<outline>
		<contour>
			<point x="-10.01" y="411.05" type="curve" smooth="yes"/>
			<point x="-10" y="411" type="line"/>
			<point x="-10" y="301" type="line"/>
			<point x="94.31" y="7.54" type="line" smooth="yes"/>
			<point x="95.92" y="3.03"/>
			<point x="100.18" y="0.02"/>
			<point x="104.98" y="0.02" type="curve" smooth="yes"/>
			<point x="226.98" y="0.02" type="line"/>
			<point x="119.98" y="301.02" type="line"/>
			<point x="359.98" y="301.02" type="line" smooth="yes"/>
			<point x="395.98" y="301.02"/>
			<point x="419.98" y="325.02"/>
			<point x="419.98" y="361.02" type="curve" smooth="yes"/>
			<point x="419.98" y="660.02" type="line" smooth="yes"/>
			<point x="419.98" y="696.02"/>
			<point x="395.98" y="720.02"/>
			<point x="359.98" y="720.02" type="curve" smooth="yes"/>
			<point x="77.98" y="720.02" type="line" smooth="yes"/>
			<point x="73.18" y="720.02"/>
			<point x="69.99" y="716.82"/>
			<point x="69.99" y="712.03" type="curve" smooth="yes"/>
			<point x="69.99" y="610.03" type="line" smooth="yes"/>
			<point x="69.99" y="605.23"/>
			<point x="73.18" y="602.04"/>
			<point x="77.98" y="602.04" type="curve" smooth="yes"/>
			<point x="299.98" y="602.04" type="line"/>
			<point x="299.98" y="419.04" type="line"/>
			<point x="-2.02" y="419.04" type="line" smooth="yes"/>
			<point x="-6.81" y="419.04"/>
			<point x="-10.01" y="415.84"/>
		</contour>
	</outline>
</glyph>
<glyph name="T.calt" format="2">
	<advance width="480"/>
	<outline>
		<contour>
			<point x="60" y="711" type="curve" smooth="yes"/>
			<point x="60" y="605" type="line" smooth="yes"/>
			<point x="60" y="600"/>
			<point x="63" y="597"/>
			<point x="68" y="597" type="curve" smooth="yes"/>
			<point x="411" y="597" type="line" smooth="yes"/>
			<point x="416" y="597"/>
			<point x="420" y="601"/>
			<point x="420" y="606" type="curve" smooth="yes"/>
			<point x="420" y="712" type="line" smooth="yes"/>
			<point x="420" y="717"/>
			<point x="417" y="720"/>
			<point x="412" y="720" type="curve" smooth="yes"/>
			<point x="69" y="720" type="line" smooth="yes"/>
			<point x="64" y="720"/>
			<point x="60" y="716"/>
		</contour>
		<contour>
			<point x="140" y="8" type="curve" smooth="yes"/>
			<point x="140" y="467" type="line" smooth="yes"/>
			<point x="140" y="472"/>
			<point x="143" y="475"/>
			<point x="148" y="475" type="curve" smooth="yes"/>
			<point x="252" y="475" type="line" smooth="yes"/>
			<point x="257" y="475"/>
			<point x="260" y="472"/>
			<point x="260" y="467" type="curve" smooth="yes"/>
			<point x="260" y="9" type="line" smooth="yes"/>
			<point x="260" y="4"/>
			<point x="256" y="0"/>
			<point x="251" y="0" type="curve" smooth="yes"/>
			<point x="148" y="0" type="line" smooth="yes"/>
			<point x="143" y="0"/>
			<point x="140" y="3"/>
		</contour>
	</outline>
</glyph>
<glyph name="seven.ss01" format="2">
	<advance width="570"/>
	<outline>
		<contour>
			<point x="175" y="0" type="line"/>
			<point x="302" y="0" type="line" smooth="yes"/>
			<point x="306.8" y="0"/>
			<point x="311.068" y="3.016"/>
			<point x="312.671" y="7.541" type="curve" smooth="yes"/>
			<point x="480" y="480" type="line"/>
			<point x="360" y="480" type="line" smooth="yes"/>
			<point x="355.2" y="480"/>
			<point x="350.893" y="476.998"/>
			<point x="349.232" y="472.495" type="curve" smooth="yes"/>
		</contour>
		<contour>
			<point x="500" y="608" type="curve" smooth="yes"/>
			<point x="500" y="659.549" type="line" smooth="yes"/>
			<point x="500" y="695.82"/>
			<point x="475.819" y="720"/>
			<point x="439.549" y="720" type="curve" smooth="yes"/>
			<point x="68" y="720" type="line" smooth="yes"/>
			<point x="63.2" y="720"/>
			<point x="60" y="716.8"/>
			<point x="60" y="712" type="curve" smooth="yes"/>
			<point x="60" y="608" type="line" smooth="yes"/>
			<point x="60" y="603.2"/>
			<point x="63.2" y="600"/>
			<point x="68" y="600" type="curve" smooth="yes"/>
			<point x="492" y="600" type="line" smooth="yes"/>
			<point x="496.8" y="600"/>
			<point x="500" y="603.2"/>
		</contour>
	</outline>
</glyph>
